<svg viewBox="0 0 64 64" xmlns="http://www.w3.org/2000/svg"><ellipse cx="11" cy="57.2" fill="#94989b" rx="4.7" ry="4.8"/><path d="m11 60.4c-1.7 0-3.1-1.4-3.1-3.2 0-1.7 1.4-3.2 3.1-3.2s3.1 1.4 3.1 3.2-1.4 3.2-3.1 3.2m0-4.7c-.9 0-1.6.7-1.6 1.6s.7 1.6 1.6 1.6 1.6-.7 1.6-1.6-.7-1.6-1.6-1.6" fill="#3e4347"/><ellipse cx="21.4" cy="57.2" fill="#94989b" rx="4.7" ry="4.8"/><path d="m21.4 60.4c-1.7 0-3.1-1.4-3.1-3.2 0-1.7 1.4-3.2 3.1-3.2s3.1 1.4 3.1 3.2-1.4 3.2-3.1 3.2m0-4.7c-.9 0-1.6.7-1.6 1.6s.7 1.6 1.6 1.6 1.6-.7 1.6-1.6c-.1-.9-.8-1.6-1.6-1.6" fill="#3e4347"/><ellipse cx="42.6" cy="57.2" fill="#94989b" rx="4.7" ry="4.8"/><path d="m42.6 60.4c-1.7 0-3.1-1.4-3.1-3.2 0-1.7 1.4-3.2 3.1-3.2s3.1 1.4 3.1 3.2-1.4 3.2-3.1 3.2m0-4.7c-.9 0-1.6.7-1.6 1.6s.7 1.6 1.6 1.6 1.6-.7 1.6-1.6-.7-1.6-1.6-1.6" fill="#3e4347"/><ellipse cx="53" cy="57.2" fill="#94989b" rx="4.7" ry="4.8"/><path d="m53 60.4c-1.7 0-3.1-1.4-3.1-3.2 0-1.7 1.4-3.2 3.1-3.2s3.1 1.4 3.1 3.2-1.4 3.2-3.1 3.2m0-4.7c-.9 0-1.6.7-1.6 1.6s.7 1.6 1.6 1.6 1.6-.7 1.6-1.6c-.1-.9-.8-1.6-1.6-1.6" fill="#3e4347"/><path d="m54.3 20h-44.6c-3 0-5.4 2.5-5.4 5.5v31.7h55.4v-31.7c0-3-2.4-5.5-5.4-5.5" fill="#f2b200"/><path d="m54.3 20h-44.6c-3 0-5.4 2.5-5.4 5.5v2.8h55.4v-2.8c0-3-2.4-5.5-5.4-5.5" fill="#699635"/><path d="m4.3 28.3h55.4v15.2h-55.4z" fill="#ffe62e"/><g fill="#3e4347"><path d="m3.7 54.5h.6v2.8h-.6z"/><path d="m2 53.1h1.7v5.5h-1.7zm57.7 1.4h.6v2.8h-.6z"/><path d="m60.3 53.1h1.7v5.5h-1.7z"/></g><path d="m26 52.1h12l2.7-2.8h19v-2.8h-20.2l-2.7 2.8h-9.6l-2.7-2.8h-20.2v2.8h19z" fill="#89664c"/><path d="m56.6 39.6c0 .6-.5 1.1-1 1.1h-6c-.6 0-1-.5-1-1.1v-7.5c0-.6.5-1.1 1-1.1h6c.6 0 1 .5 1 1.1zm-10.3 0c0 .6-.5 1.1-1 1.1h-6c-.6 0-1-.5-1-1.1v-7.5c0-.6.5-1.1 1-1.1h6c.6 0 1 .5 1 1.1zm-10.2 0c0 .6-.5 1.1-1 1.1h-6c-.6 0-1-.5-1-1.1v-7.5c0-.6.5-1.1 1-1.1h6c.6 0 1 .5 1 1.1zm-10.3 0c0 .6-.5 1.1-1 1.1h-6c-.6 0-1-.5-1-1.1v-7.5c0-.6.5-1.1 1-1.1h6c.6 0 1 .5 1 1.1zm-10.3 0c0 .6-.5 1.1-1 1.1h-6c-.6 0-1-.5-1-1.1v-7.5c0-.6.5-1.1 1-1.1h6c.6 0 1 .5 1 1.1zm-11.2 13.5h55.4v4.1h-55.4z" fill="#3e4347"/><path d="m14.4 38.5c0 .5-.4.9-.9.9h-4c-.5 0-.9-.4-.9-.9v-5.2c0-.5.4-.9.9-.9h4c.5 0 .9.4.9.9zm10.2 0c0 .5-.4.9-.9.9h-4c-.5 0-.9-.4-.9-.9v-5.2c0-.5.4-.9.9-.9h4c.5 0 .9.4.9.9zm10.3 0c0 .5-.4.9-.9.9h-4c-.5 0-.9-.4-.9-.9v-5.2c0-.5.4-.9.9-.9h4c.5 0 .9.4.9.9zm10.3 0c0 .5-.4.9-.9.9h-4c-.5 0-.9-.4-.9-.9v-5.2c0-.5.4-.9.9-.9h4c.5 0 .9.4.9.9zm10.2 0c0 .5-.4.9-.9.9h-4c-.5 0-.9-.4-.9-.9v-5.2c0-.5.4-.9.9-.9h4c.5 0 .9.4.9.9z" fill="#b4d7ee"/></svg>